<svg xmlns="http://www.w3.org/2000/svg" viewBox="0 0 640 400" fill="none">
  <defs>
    <linearGradient id="bg" x1="72" y1="46" x2="566" y2="360" gradientUnits="userSpaceOnUse">
      <stop stop-color="#081628"/>
      <stop offset="1" stop-color="#11334e"/>
    </linearGradient>
    <linearGradient id="paper" x1="146" y1="102" x2="382" y2="288" gradientUnits="userSpaceOnUse">
      <stop stop-color="#f4fbff"/>
      <stop offset="1" stop-color="#d9eef9"/>
    </linearGradient>
    <linearGradient id="accent" x1="398" y1="110" x2="520" y2="252" gradientUnits="userSpaceOnUse">
      <stop stop-color="#8ee8ff"/>
      <stop offset="1" stop-color="#1ca8e0"/>
    </linearGradient>
  </defs>
  <rect width="640" height="400" rx="38" fill="url(#bg)"/>
  <circle cx="112" cy="94" r="48" fill="#0f4567" opacity=".34"/>
  <circle cx="542" cy="306" r="60" fill="#1383bc" opacity=".18"/>
  <rect x="120" y="88" width="236" height="220" rx="24" fill="url(#paper)" transform="rotate(-4 120 88)"/>
  <rect x="146" y="102" width="236" height="220" rx="24" fill="url(#paper)" stroke="#93dfff" stroke-opacity=".28"/>
  <text x="176" y="142" fill="#11334d" font-family="Segoe UI, Arial, sans-serif" font-size="24" font-weight="700">Resume Test</text>
  <rect x="176" y="168" width="178" height="12" rx="6" fill="#9ed9f4"/>
  <rect x="176" y="194" width="160" height="12" rx="6" fill="#b8e6fb"/>
  <rect x="176" y="220" width="192" height="12" rx="6" fill="#d1efff"/>
  <rect x="176" y="250" width="122" height="34" rx="16" fill="#1c9edf"/>
  <text x="205" y="272" fill="#03131f" font-family="Segoe UI, Arial, sans-serif" font-size="13" font-weight="700">ATS score</text>
  <circle cx="474" cy="170" r="58" fill="url(#accent)"/>
  <circle cx="474" cy="170" r="34" fill="#0a2740"/>
  <path d="M474 146v48" stroke="#8ce8ff" stroke-width="6" stroke-linecap="round"/>
  <path d="M450 170h48" stroke="#8ce8ff" stroke-width="6" stroke-linecap="round"/>
  <path d="M514 214l36 36" stroke="#8ce8ff" stroke-width="12" stroke-linecap="round"/>
  <text x="420" y="274" fill="#dff7ff" font-family="Segoe UI, Arial, sans-serif" font-size="14" font-weight="700">Upload, parse, rank</text>
  <text x="426" y="296" fill="#93d1ea" font-family="Segoe UI, Arial, sans-serif" font-size="12">PDF preview and shortlist flow</text>
</svg>
